<svg class="main-svg" xmlns="http://www.w3.org/2000/svg" xmlns:xlink="http://www.w3.org/1999/xlink" width="1000" height="500" style="" viewBox="0 0 1000 500"><rect x="0" y="0" width="1000" height="500" style="fill: rgb(0, 0, 0); fill-opacity: 0;"/><defs id="defs-e8391f"><g class="clips"><clipPath id="clipe8391fxyplot" class="plotclip"><rect width="378" height="320"/></clipPath><clipPath id="clipe8391fx2y2plot" class="plotclip"><rect width="377.99999999999994" height="320"/></clipPath><clipPath class="axesclip" id="clipe8391fx"><rect x="80" y="0" width="378" height="500"/></clipPath><clipPath class="axesclip" id="clipe8391fy"><rect x="0" y="100" width="1000" height="320"/></clipPath><clipPath class="axesclip" id="clipe8391fxy"><rect x="80" y="100" width="378" height="320"/></clipPath><clipPath class="axesclip" id="clipe8391fy2"><rect x="0" y="100" width="1000" height="320"/></clipPath><clipPath class="axesclip" id="clipe8391fxy2"><rect x="80" y="100" width="378" height="320"/></clipPath><clipPath class="axesclip" id="clipe8391fx2"><rect x="542" y="0" width="377.99999999999994" height="500"/></clipPath><clipPath class="axesclip" id="clipe8391fx2y"><rect x="542" y="100" width="377.99999999999994" height="320"/></clipPath><clipPath class="axesclip" id="clipe8391fx2y2"><rect x="542" y="100" width="377.99999999999994" height="320"/></clipPath></g><g class="gradients"/><g class="patterns"/></defs><g class="bglayer"><rect class="bg" x="80" y="100" width="378" height="320" style="fill: rgb(229, 236, 246); fill-opacity: 1; stroke-width: 0;"/><rect class="bg" x="542" y="100" width="377.99999999999994" height="320" style="fill: rgb(229, 236, 246); fill-opacity: 1; stroke-width: 0;"/></g><g class="layer-below"><g class="imagelayer"/><g class="shapelayer"/></g><g class="cartesianlayer"><g class="subplot xy"><g class="layer-subplot"><g class="shapelayer"/><g class="imagelayer"/></g><g class="minor-gridlayer"><g class="x"/><g class="y"/></g><g class="gridlayer"><g class="x"><path class="xgrid crisp" transform="translate(156.36,0)" d="M0,100v320" style="stroke: rgb(255, 255, 255); stroke-opacity: 1; stroke-width: 1px;"/><path class="xgrid crisp" transform="translate(232.73,0)" d="M0,100v320" style="stroke: rgb(255, 255, 255); stroke-opacity: 1; stroke-width: 1px;"/><path class="xgrid crisp" transform="translate(309.09000000000003,0)" d="M0,100v320" style="stroke: rgb(255, 255, 255); stroke-opacity: 1; stroke-width: 1px;"/><path class="xgrid crisp" transform="translate(385.45,0)" d="M0,100v320" style="stroke: rgb(255, 255, 255); stroke-opacity: 1; stroke-width: 1px;"/></g><g class="y"><path class="ygrid crisp" transform="translate(0,373.04)" d="M80,0h378" style="stroke: rgb(255, 255, 255); stroke-opacity: 1; stroke-width: 1px;"/><path class="ygrid crisp" transform="translate(0,322.12)" d="M80,0h378" style="stroke: rgb(255, 255, 255); stroke-opacity: 1; stroke-width: 1px;"/><path class="ygrid crisp" transform="translate(0,271.2)" d="M80,0h378" style="stroke: rgb(255, 255, 255); stroke-opacity: 1; stroke-width: 1px;"/><path class="ygrid crisp" transform="translate(0,220.28)" d="M80,0h378" style="stroke: rgb(255, 255, 255); stroke-opacity: 1; stroke-width: 1px;"/><path class="ygrid crisp" transform="translate(0,169.36)" d="M80,0h378" style="stroke: rgb(255, 255, 255); stroke-opacity: 1; stroke-width: 1px;"/><path class="ygrid crisp" transform="translate(0,118.44)" d="M80,0h378" style="stroke: rgb(255, 255, 255); stroke-opacity: 1; stroke-width: 1px;"/></g></g><g class="zerolinelayer"><path class="xzl zl crisp" transform="translate(80,0)" d="M0,100v320" style="stroke: rgb(255, 255, 255); stroke-opacity: 1; stroke-width: 2px;"/></g><path class="xlines-below"/><path class="ylines-below"/><g class="overlines-below"/><g class="xaxislayer-below"/><g class="yaxislayer-below"/><g class="overaxes-below"/><g class="plot" transform="translate(80,100)" clip-path="url(#clipe8391fxyplot)"><g class="scatterlayer mlayer"><g class="trace scatter tracea115c9" style="stroke-miterlimit: 2; opacity: 1;"><g class="fills"/><g class="errorbars"/><g class="lines"><path class="js-line" d="M0,16L3.82,21.93L7.64,21.93L19.09,21.93L22.91,36.82L26.73,21.93L30.55,71.88L34.36,38.35L38.18,43.1L42,80.04L45.82,30.24L49.64,147.77L53.45,82.43L57.27,47.62L61.09,115.15L64.91,78.72L68.73,115.32L72.55,102.47L76.36,114.87L80.18,109.41L84,130.95L87.82,117.09L91.64,149.3L95.45,121.13L99.27,166.11L103.09,125.73L106.91,181.81L110.73,132.2L114.55,202.04L118.36,151.58L122.18,219.59L126,172.04L129.82,228.3L133.64,188.29L137.45,240.54L141.27,200.52L145.09,246.05L148.91,212.8L152.73,262.78L156.55,232.18L160.36,282.91L164.18,247.51L168,293.84L171.82,260L175.64,300.7L179.45,266.43L183.27,302.61L187.09,268.14L190.91,297.36L194.73,264.78L198.55,292.92L202.36,244.8L206.18,296.91L210,264.26L213.82,304L217.64,281.3L221.45,278.77L225.27,194.95L229.09,273.58L232.91,232.36L236.73,278.25L240.55,241.97L244.36,288.08L248.18,254.79L252,300.92L255.82,266.66L259.64,301.85L263.45,262.95L267.27,302.66L271.09,265.96L274.91,286.67L278.73,217.88L282.55,105.75L286.36,162.93L290.18,94.85L294,106.94L297.82,152.36L301.64,103.52L305.45,104.97L309.27,104.62L313.09,121.15L316.91,107.08L320.73,130.52L324.55,122.38L328.36,128.69L332.18,130.03L336,134.6L339.82,135.53L343.64,138.42L347.45,145.56L351.27,141.5L355.09,154.43L358.91,144.02L362.73,159.53L366.55,148.09L370.36,165.98L374.18,150.43L378,171.27" style="vector-effect: none; fill: none; stroke: rgb(99, 110, 250); stroke-opacity: 1; stroke-width: 2px; opacity: 1;"/></g><g class="points"/><g class="text"/></g></g></g><g class="overplot"/><path class="xlines-above crisp" d="M0,0" style="fill: none;"/><path class="ylines-above crisp" d="M0,0" style="fill: none;"/><g class="overlines-above"/><g class="xaxislayer-above"><g class="xtick"><text text-anchor="middle" x="0" y="433" transform="translate(80,0)" style="font-family: 'Open Sans', verdana, arial, sans-serif; font-size: 12px; fill: rgb(42, 63, 95); fill-opacity: 1; white-space: pre; opacity: 1;">0</text></g><g class="xtick"><text text-anchor="middle" x="0" y="433" style="font-family: 'Open Sans', verdana, arial, sans-serif; font-size: 12px; fill: rgb(42, 63, 95); fill-opacity: 1; white-space: pre; opacity: 1;" transform="translate(156.36,0)">20</text></g><g class="xtick"><text text-anchor="middle" x="0" y="433" style="font-family: 'Open Sans', verdana, arial, sans-serif; font-size: 12px; fill: rgb(42, 63, 95); fill-opacity: 1; white-space: pre; opacity: 1;" transform="translate(232.73,0)">40</text></g><g class="xtick"><text text-anchor="middle" x="0" y="433" style="font-family: 'Open Sans', verdana, arial, sans-serif; font-size: 12px; fill: rgb(42, 63, 95); fill-opacity: 1; white-space: pre; opacity: 1;" transform="translate(309.09000000000003,0)">60</text></g><g class="xtick"><text text-anchor="middle" x="0" y="433" style="font-family: 'Open Sans', verdana, arial, sans-serif; font-size: 12px; fill: rgb(42, 63, 95); fill-opacity: 1; white-space: pre; opacity: 1;" transform="translate(385.45,0)">80</text></g></g><g class="yaxislayer-above"><g class="ytick"><text text-anchor="end" x="79" y="4.199999999999999" transform="translate(0,373.04)" style="font-family: 'Open Sans', verdana, arial, sans-serif; font-size: 12px; fill: rgb(42, 63, 95); fill-opacity: 1; white-space: pre; opacity: 1;">0.2</text></g><g class="ytick"><text text-anchor="end" x="79" y="4.199999999999999" style="font-family: 'Open Sans', verdana, arial, sans-serif; font-size: 12px; fill: rgb(42, 63, 95); fill-opacity: 1; white-space: pre; opacity: 1;" transform="translate(0,322.12)">0.3</text></g><g class="ytick"><text text-anchor="end" x="79" y="4.199999999999999" style="font-family: 'Open Sans', verdana, arial, sans-serif; font-size: 12px; fill: rgb(42, 63, 95); fill-opacity: 1; white-space: pre; opacity: 1;" transform="translate(0,271.2)">0.4</text></g><g class="ytick"><text text-anchor="end" x="79" y="4.199999999999999" style="font-family: 'Open Sans', verdana, arial, sans-serif; font-size: 12px; fill: rgb(42, 63, 95); fill-opacity: 1; white-space: pre; opacity: 1;" transform="translate(0,220.28)">0.5</text></g><g class="ytick"><text text-anchor="end" x="79" y="4.199999999999999" style="font-family: 'Open Sans', verdana, arial, sans-serif; font-size: 12px; fill: rgb(42, 63, 95); fill-opacity: 1; white-space: pre; opacity: 1;" transform="translate(0,169.36)">0.6</text></g><g class="ytick"><text text-anchor="end" x="79" y="4.199999999999999" style="font-family: 'Open Sans', verdana, arial, sans-serif; font-size: 12px; fill: rgb(42, 63, 95); fill-opacity: 1; white-space: pre; opacity: 1;" transform="translate(0,118.44)">0.7</text></g></g><g class="overaxes-above"/></g><g class="subplot x2y2"><g class="layer-subplot"><g class="shapelayer"/><g class="imagelayer"/></g><g class="minor-gridlayer"><g class="x2"/><g class="y2"/></g><g class="gridlayer"><g class="x2"><path class="x2grid crisp" transform="translate(618.36,0)" d="M0,100v320" style="stroke: rgb(255, 255, 255); stroke-opacity: 1; stroke-width: 1px;"/><path class="x2grid crisp" transform="translate(694.73,0)" d="M0,100v320" style="stroke: rgb(255, 255, 255); stroke-opacity: 1; stroke-width: 1px;"/><path class="x2grid crisp" transform="translate(771.09,0)" d="M0,100v320" style="stroke: rgb(255, 255, 255); stroke-opacity: 1; stroke-width: 1px;"/><path class="x2grid crisp" transform="translate(847.45,0)" d="M0,100v320" style="stroke: rgb(255, 255, 255); stroke-opacity: 1; stroke-width: 1px;"/></g><g class="y2"><path class="y2grid crisp" transform="translate(0,346.4)" d="M542,0h377.99999999999994" style="stroke: rgb(255, 255, 255); stroke-opacity: 1; stroke-width: 1px;"/><path class="y2grid crisp" transform="translate(0,288.8)" d="M542,0h377.99999999999994" style="stroke: rgb(255, 255, 255); stroke-opacity: 1; stroke-width: 1px;"/><path class="y2grid crisp" transform="translate(0,231.2)" d="M542,0h377.99999999999994" style="stroke: rgb(255, 255, 255); stroke-opacity: 1; stroke-width: 1px;"/><path class="y2grid crisp" transform="translate(0,173.6)" d="M542,0h377.99999999999994" style="stroke: rgb(255, 255, 255); stroke-opacity: 1; stroke-width: 1px;"/><path class="y2grid crisp" transform="translate(0,116)" d="M542,0h377.99999999999994" style="stroke: rgb(255, 255, 255); stroke-opacity: 1; stroke-width: 1px;"/></g></g><g class="zerolinelayer"><path class="x2zl zl crisp" transform="translate(542,0)" d="M0,100v320" style="stroke: rgb(255, 255, 255); stroke-opacity: 1; stroke-width: 2px;"/><path class="y2zl zl crisp" transform="translate(0,404)" d="M542,0h377.99999999999994" style="stroke: rgb(255, 255, 255); stroke-opacity: 1; stroke-width: 2px;"/></g><path class="xlines-below"/><path class="ylines-below"/><g class="overlines-below"/><g class="xaxislayer-below"/><g class="yaxislayer-below"/><g class="overaxes-below"/><g class="plot" transform="translate(542,100)" clip-path="url(#clipe8391fx2y2plot)"><g class="scatterlayer mlayer"><g class="trace scatter trace8c1dd7" style="stroke-miterlimit: 2; opacity: 1;"><g class="fills"/><g class="errorbars"/><g class="lines"><path class="js-line" d="M0,304L3.82,16L7.64,304L11.45,16L15.27,304L19.09,16L22.91,304L26.73,16L30.55,304L34.36,200.61L38.18,304L42,152.22L45.82,276.21L49.64,131.79L53.45,222.33L57.27,304L61.09,164.72L64.91,244.18L68.73,127.14L72.55,183.82L76.36,128.25L80.18,176.91L84,120.85L87.82,165.21L91.64,112.25L95.45,162.99L99.27,105.47L103.09,243.02L106.91,100.55L110.73,241.21L114.55,95.1L118.36,239.17L122.18,94.57L126,238.81L129.82,93.55L133.64,228.84L137.45,92.66L141.27,230.04L145.09,198.13L148.91,225.21L152.73,195.43L156.55,194.81L160.36,195.43L164.18,192.55L168,194.81L171.82,192.02L175.64,194.72L179.45,190.82L183.27,194.14L187.09,190.55L190.91,194.06L194.73,223.61L198.55,202.87L202.36,231.32L206.18,202.87L210,227.29L213.82,193.52L217.64,189.05L221.45,192.95L225.27,244.66L229.09,222.15L232.91,189.93L236.73,197.78L240.55,230.62L244.36,196.32L248.18,190.82L252,195.56L255.82,188.16L259.64,195.07L263.45,230.62L267.27,194.5L271.09,230.44L274.91,195.07L278.73,242.93L282.55,104.89L286.36,304L290.18,156.61L294,247.06L297.82,113.71L301.64,130.55L305.45,261.24L309.27,106.4L313.09,194.85L316.91,93.28L320.73,186.43L324.55,85.22L328.36,173.8L332.18,80.39L336,169.68L339.82,77.73L343.64,161.44L347.45,76.09L351.27,133.52L355.09,73.17L358.91,131.13L362.73,71.3L366.55,129.8L370.36,69.53L374.18,127.19L378,67.23" style="vector-effect: none; fill: none; stroke: rgb(199, 42, 47); stroke-opacity: 1; stroke-width: 2px; opacity: 1;"/></g><g class="points"/><g class="text"/></g></g></g><g class="overplot"/><path class="xlines-above crisp" d="M0,0" style="fill: none;"/><path class="ylines-above crisp" d="M0,0" style="fill: none;"/><g class="overlines-above"/><g class="xaxislayer-above"><g class="x2tick"><text text-anchor="middle" x="0" y="433" transform="translate(542,0)" style="font-family: 'Open Sans', verdana, arial, sans-serif; font-size: 12px; fill: rgb(42, 63, 95); fill-opacity: 1; white-space: pre; opacity: 1;">0</text></g><g class="x2tick"><text text-anchor="middle" x="0" y="433" style="font-family: 'Open Sans', verdana, arial, sans-serif; font-size: 12px; fill: rgb(42, 63, 95); fill-opacity: 1; white-space: pre; opacity: 1;" transform="translate(618.36,0)">20</text></g><g class="x2tick"><text text-anchor="middle" x="0" y="433" style="font-family: 'Open Sans', verdana, arial, sans-serif; font-size: 12px; fill: rgb(42, 63, 95); fill-opacity: 1; white-space: pre; opacity: 1;" transform="translate(694.73,0)">40</text></g><g class="x2tick"><text text-anchor="middle" x="0" y="433" style="font-family: 'Open Sans', verdana, arial, sans-serif; font-size: 12px; fill: rgb(42, 63, 95); fill-opacity: 1; white-space: pre; opacity: 1;" transform="translate(771.09,0)">60</text></g><g class="x2tick"><text text-anchor="middle" x="0" y="433" style="font-family: 'Open Sans', verdana, arial, sans-serif; font-size: 12px; fill: rgb(42, 63, 95); fill-opacity: 1; white-space: pre; opacity: 1;" transform="translate(847.45,0)">80</text></g></g><g class="yaxislayer-above"><g class="y2tick"><text text-anchor="end" x="541" y="4.199999999999999" transform="translate(0,404)" style="font-family: 'Open Sans', verdana, arial, sans-serif; font-size: 12px; fill: rgb(42, 63, 95); fill-opacity: 1; white-space: pre; opacity: 1;">0</text></g><g class="y2tick"><text text-anchor="end" x="541" y="4.199999999999999" style="font-family: 'Open Sans', verdana, arial, sans-serif; font-size: 12px; fill: rgb(42, 63, 95); fill-opacity: 1; white-space: pre; opacity: 1;" transform="translate(0,346.4)">0.2</text></g><g class="y2tick"><text text-anchor="end" x="541" y="4.199999999999999" style="font-family: 'Open Sans', verdana, arial, sans-serif; font-size: 12px; fill: rgb(42, 63, 95); fill-opacity: 1; white-space: pre; opacity: 1;" transform="translate(0,288.8)">0.4</text></g><g class="y2tick"><text text-anchor="end" x="541" y="4.199999999999999" style="font-family: 'Open Sans', verdana, arial, sans-serif; font-size: 12px; fill: rgb(42, 63, 95); fill-opacity: 1; white-space: pre; opacity: 1;" transform="translate(0,231.2)">0.6</text></g><g class="y2tick"><text text-anchor="end" x="541" y="4.199999999999999" style="font-family: 'Open Sans', verdana, arial, sans-serif; font-size: 12px; fill: rgb(42, 63, 95); fill-opacity: 1; white-space: pre; opacity: 1;" transform="translate(0,173.6)">0.8</text></g><g class="y2tick"><text text-anchor="end" x="541" y="4.199999999999999" style="font-family: 'Open Sans', verdana, arial, sans-serif; font-size: 12px; fill: rgb(42, 63, 95); fill-opacity: 1; white-space: pre; opacity: 1;" transform="translate(0,116)">1</text></g></g><g class="overaxes-above"/></g></g><g class="polarlayer"/><g class="smithlayer"/><g class="ternarylayer"/><g class="geolayer"/><g class="funnelarealayer"/><g class="pielayer"/><g class="iciclelayer"/><g class="treemaplayer"/><g class="sunburstlayer"/><g class="glimages"/><defs id="topdefs-e8391f"><g class="clips"/></defs><g class="layer-above"><g class="imagelayer"/><g class="shapelayer"/></g><g class="infolayer"><g class="g-gtitle"><text class="gtitle" x="50" y="50" text-anchor="start" dy="0em" style="font-family: 'Open Sans', verdana, arial, sans-serif; font-size: 17px; fill: rgb(42, 63, 95); opacity: 1; font-weight: normal; white-space: pre;">Classification Results</text></g><g class="g-xtitle"/><g class="g-x2title"/><g class="g-ytitle"/><g class="g-y2title"/><g class="annotation" data-index="0" style="opacity: 1;"><g class="annotation-text-g" transform="rotate(0,269,88)"><g class="cursor-pointer" transform="translate(199,76)"><rect class="bg" x="0.5" y="0.5" width="139" height="23" style="stroke-width: 1px; stroke: rgb(0, 0, 0); stroke-opacity: 0; fill: rgb(0, 0, 0); fill-opacity: 0;"/><text class="annotation-text" text-anchor="middle" x="70.140625" y="18" style="font-family: 'Open Sans', verdana, arial, sans-serif; font-size: 16px; fill: rgb(42, 63, 95); fill-opacity: 1; white-space: pre;">Log Loss / Epoch</text></g></g></g><g class="annotation" data-index="1" style="opacity: 1;"><g class="annotation-text-g" transform="rotate(0,731,88)"><g class="cursor-pointer" transform="translate(634,76)"><rect class="bg" x="0.5" y="0.5" width="193" height="23" style="stroke-width: 1px; stroke: rgb(0, 0, 0); stroke-opacity: 0; fill: rgb(0, 0, 0); fill-opacity: 0;"/><text class="annotation-text" text-anchor="middle" x="96.859375" y="18" style="font-family: 'Open Sans', verdana, arial, sans-serif; font-size: 16px; fill: rgb(42, 63, 95); fill-opacity: 1; white-space: pre;">Accuracy Score / Epoch</text></g></g></g></g></svg>